<svg width="49" height="73" viewBox="0 0 49 73" fill="none" xmlns="http://www.w3.org/2000/svg">
<g clip-path="url(#clip0_111_495)">
<path d="M0 60.8307C0 54.1147 5.48283 48.6616 12.2518 48.6616H24.5037V60.8307C24.5037 67.5467 19.0208 72.9998 12.2518 72.9998C5.48283 72.9998 0 67.554 0 60.8307Z" fill="#24CB71"/>
<path d="M24.4963 0V24.3309H36.7482C43.5098 24.3309 49 18.8851 49 12.1618C49 5.4385 43.5098 0 36.7482 0H24.4963Z" fill="#FF7237"/>
<path d="M36.6451 48.6693C43.4116 48.6693 48.897 43.221 48.897 36.5002C48.897 29.7793 43.4116 24.3311 36.6451 24.3311C29.8786 24.3311 24.3933 29.7793 24.3933 36.5002C24.3933 43.221 29.8786 48.6693 36.6451 48.6693Z" fill="#00B6FF"/>
<path d="M0 12.1691C0 18.8851 5.48283 24.3382 12.2518 24.3382H24.5037V0H12.2518C5.48283 0 0 5.4458 0 12.1691Z" fill="#FF3737"/>
<path d="M0 36.5002C0 43.2162 5.48283 48.6693 12.2518 48.6693H24.5037V24.3311H12.2518C5.48283 24.3311 0 29.7842 0 36.5002Z" fill="#874FFF"/>
</g>
<defs>
<clipPath id="clip0_111_495">
<rect width="49" height="73" fill="white"/>
</clipPath>
</defs>
</svg>
