<svg width="97" height="97" viewBox="0 0 97 97" fill="none" xmlns="http://www.w3.org/2000/svg">
<g clip-path="url(#clip0_111_532)">
<path d="M50.9062 43.0762V76.7028H44.6335V40.7158L50.9062 43.0762Z" fill="black"/>
<path d="M25.8479 39.9399C25.8479 31.3392 30.5362 26.6509 36.0329 26.6509C41.5296 26.6509 42.3056 27.4269 48.5459 30.5632C54.7862 33.6995 56.3706 34.4755 59.5069 34.4755C62.6432 34.4755 64.1952 32.1152 64.1952 27.4269H69.6596C70.4356 36.8035 64.9712 40.7159 59.4746 40.7159C53.9779 40.7159 52.4259 39.9399 46.9616 36.8035C41.4972 33.6672 39.9129 32.8912 36.7766 32.8912C33.6402 32.8912 32.0882 35.2515 31.3122 40.7159L25.8479 39.9399Z" fill="black"/>
<path d="M48.5459 97.0405C21.8062 97.0405 0.0458984 75.2802 0.0458984 48.5405C0.0458984 21.8009 21.8062 0.0405273 48.5459 0.0405273C75.2856 0.0405273 97.0459 21.8009 97.0459 48.5405C97.0459 75.2802 75.2856 97.0405 48.5459 97.0405ZM48.5459 3.17686C23.5199 3.17686 3.18223 23.5145 3.18223 48.5405C3.18223 73.5665 23.5199 93.9042 48.5459 93.9042C73.5719 93.9042 93.9096 73.5665 93.9096 48.5405C93.9096 23.5145 73.5719 3.17686 48.5459 3.17686Z" fill="black"/>
</g>
<defs>
<clipPath id="clip0_111_532">
<rect width="97" height="97" fill="white"/>
</clipPath>
</defs>
</svg>
